<svg width="497" height="260" viewBox="0 0 497 260" fill="none" xmlns="http://www.w3.org/2000/svg">
<path d="M115.55 138.35L107.67 146.44V159.15H98.4399V109.45H107.67V134.94L132.24 109.45H142.61L121.74 131.67L143.89 159.15H133.1L115.56 138.35H115.55Z" fill="#777777"/>
<path d="M144.87 134.3C144.87 119.6 156.23 108.74 171.64 108.74C187.05 108.74 198.41 119.53 198.41 134.3C198.41 149.07 187.05 159.86 171.64 159.86C156.23 159.86 144.87 149 144.87 134.3ZM189.1 134.3C189.1 124.15 181.64 116.83 171.63 116.83C161.62 116.83 154.16 124.14 154.16 134.3C154.16 144.46 161.62 151.77 171.63 151.77C181.64 151.77 189.1 144.46 189.1 134.3Z" fill="#777777"/>
<path d="M253.86 159.15L253.79 126.21L237.46 153.47H233.34L217.01 126.63V159.15H208.21V109.45H215.81L235.55 142.39L254.93 109.45H262.53L262.6 159.15H253.87H253.86Z" fill="#777777"/>
<path d="M317.62 127.13C317.62 138.06 309.53 144.81 296.46 144.81H285.24V159.15H276.01V109.45H296.46C309.52 109.45 317.62 116.12 317.62 127.13ZM308.32 127.13C308.32 120.88 304.13 117.26 296.04 117.26H285.25V137H296.04C304.13 137 308.32 133.38 308.32 127.13Z" fill="#777777"/>
<path d="M356.6 147.65H331.75L326.85 159.15H317.34L339.71 109.45H348.8L371.24 159.15H361.58L356.61 147.65H356.6ZM353.55 140.41L344.18 118.68L334.88 140.41H353.55Z" fill="#777777"/>
<path d="M373.35 153.9L376.55 146.73C380.53 149.92 386.84 152.2 392.95 152.2C400.69 152.2 403.95 149.43 403.95 145.74C403.95 135.02 374.41 142.05 374.41 123.59C374.41 115.57 380.8 108.75 394.43 108.75C400.39 108.75 406.64 110.31 410.97 113.15L408.06 120.32C403.59 117.69 398.69 116.41 394.36 116.41C386.69 116.41 383.57 119.39 383.57 123.16C383.57 133.74 413.03 126.85 413.03 145.1C413.03 153.05 406.57 159.87 392.94 159.87C385.2 159.87 377.46 157.46 373.34 153.91L373.35 153.9Z" fill="#777777"/>
<path d="M418.01 153.9L421.2 146.73C425.18 149.92 431.49 152.2 437.6 152.2C445.34 152.2 448.6 149.43 448.6 145.74C448.6 135.02 419.06 142.05 419.06 123.59C419.06 115.57 425.45 108.75 439.08 108.75C445.04 108.75 451.29 110.31 455.62 113.15L452.71 120.32C448.24 117.69 443.34 116.41 439.01 116.41C431.34 116.41 428.22 119.39 428.22 123.16C428.22 133.74 457.68 126.85 457.68 145.1C457.68 153.05 451.22 159.87 437.59 159.87C429.85 159.87 422.11 157.46 417.99 153.91L418.01 153.9Z" fill="#777777"/>
<path d="M196.49 173.26V174.75H200.38V176.19H196.54V187.37H194.84V176.19H192.58V174.75H194.84V173.19C194.84 170.93 196.18 169.44 198.66 169.44C199.6 169.44 200.56 169.7 201.18 170.23L200.6 171.5C200.12 171.09 199.45 170.88 198.73 170.88C197.27 170.88 196.5 171.7 196.5 173.26H196.49Z" fill="#777777"/>
<path d="M213.59 174.75V187.37H211.96V185.07C211.07 186.61 209.44 187.49 207.42 187.49C204.2 187.49 202.09 185.69 202.09 182.07V174.75H203.79V181.9C203.79 184.59 205.18 185.96 207.58 185.96C210.22 185.96 211.88 184.26 211.88 181.38V174.76H213.58L213.59 174.75ZM204.69 171.22C204.69 170.64 205.15 170.19 205.72 170.19C206.29 170.19 206.75 170.65 206.75 171.22C206.75 171.79 206.27 172.25 205.72 172.25C205.17 172.25 204.69 171.82 204.69 171.22ZM208.96 171.22C208.96 170.64 209.44 170.19 209.99 170.19C210.54 170.19 211.02 170.65 211.02 171.22C211.02 171.79 210.56 172.25 209.99 172.25C209.42 172.25 208.96 171.82 208.96 171.22Z" fill="#777777"/>
<path d="M223.72 174.65V176.31C223.58 176.31 223.43 176.29 223.31 176.29C220.67 176.29 219.06 177.97 219.06 180.95V187.38H217.35V174.76H218.98V177.23C219.77 175.55 221.38 174.66 223.71 174.66L223.72 174.65Z" fill="#777777"/>
<path d="M231.31 185.33L232.01 183.96C233.21 185.14 235.35 186 237.55 186C240.69 186 242.06 184.68 242.06 183.02C242.06 178.41 231.72 181.24 231.72 175.03C231.72 172.56 233.64 170.42 237.91 170.42C239.81 170.42 241.77 170.97 243.12 171.91L242.52 173.33C241.08 172.39 239.4 171.94 237.91 171.94C234.84 171.94 233.47 173.31 233.47 174.99C233.47 179.6 243.82 176.81 243.82 182.93C243.82 185.4 241.85 187.51 237.56 187.51C235.04 187.51 232.57 186.62 231.32 185.33H231.31Z" fill="#777777"/>
<path d="M245.59 181.06C245.59 177.32 248.33 174.65 252.02 174.65C255.71 174.65 258.43 177.31 258.43 181.06C258.43 184.81 255.72 187.49 252.02 187.49C248.32 187.49 245.59 184.8 245.59 181.06ZM256.7 181.06C256.7 178.11 254.71 176.14 252.02 176.14C249.33 176.14 247.31 178.11 247.31 181.06C247.31 184.01 249.33 185.98 252.02 185.98C254.71 185.98 256.7 184.01 256.7 181.06Z" fill="#777777"/>
<path d="M261.21 169.56H262.91V187.37H261.21V169.56Z" fill="#777777"/>
<path d="M265.64 181.06C265.64 177.32 268.38 174.65 272.07 174.65C275.76 174.65 278.48 177.31 278.48 181.06C278.48 184.81 275.77 187.49 272.07 187.49C268.37 187.49 265.64 184.8 265.64 181.06ZM276.75 181.06C276.75 178.11 274.76 176.14 272.07 176.14C269.38 176.14 267.37 178.11 267.37 181.06C267.37 184.01 269.39 185.98 272.07 185.98C274.75 185.98 276.75 184.01 276.75 181.06Z" fill="#777777"/>
<path d="M280.98 180.12H287.27V181.61H280.98V180.12Z" fill="#777777"/>
<path d="M289.13 185.33L289.83 183.96C291.03 185.14 293.17 186 295.37 186C298.51 186 299.88 184.68 299.88 183.02C299.88 178.41 289.54 181.24 289.54 175.03C289.54 172.56 291.46 170.42 295.73 170.42C297.63 170.42 299.59 170.97 300.94 171.91L300.34 173.33C298.9 172.39 297.22 171.94 295.73 171.94C292.66 171.94 291.29 173.31 291.29 174.99C291.29 179.6 301.63 176.81 301.63 182.93C301.63 185.4 299.66 187.51 295.37 187.51C292.85 187.51 290.38 186.62 289.13 185.33Z" fill="#777777"/>
<path d="M315.68 181.59H305.12C305.31 184.23 307.33 185.98 310.09 185.98C311.63 185.98 312.99 185.43 313.95 184.32L314.91 185.42C313.78 186.76 312.03 187.48 310.04 187.48C306.1 187.48 303.42 184.79 303.42 181.05C303.42 177.31 306.04 174.64 309.59 174.64C313.14 174.64 315.71 177.26 315.71 181.05C315.71 181.19 315.69 181.39 315.69 181.58L315.68 181.59ZM305.12 180.32H314.07C313.85 177.85 312.05 176.12 309.58 176.12C307.11 176.12 305.33 177.85 305.12 180.32Z" fill="#777777"/>
<path d="M318.42 169.56H320.13V187.37H318.42V169.56Z" fill="#777777"/>
<path d="M336.64 181.06C336.64 184.88 333.95 187.49 330.35 187.49C328.26 187.49 326.51 186.58 325.48 184.87V187.37H323.85V169.56H325.56V177.14C326.62 175.51 328.34 174.64 330.36 174.64C333.96 174.64 336.65 177.23 336.65 181.05L336.64 181.06ZM334.94 181.06C334.94 178.11 332.9 176.14 330.23 176.14C327.56 176.14 325.53 178.11 325.53 181.06C325.53 184.01 327.55 185.98 330.23 185.98C332.91 185.98 334.94 184.01 334.94 181.06Z" fill="#777777"/>
<path d="M337.89 185.93L338.66 184.59C339.67 185.38 341.37 186.01 343.15 186.01C345.55 186.01 346.53 185.19 346.53 183.95C346.53 180.66 338.35 183.25 338.35 178.26C338.35 176.2 340.13 174.66 343.34 174.66C344.97 174.66 346.75 175.12 347.8 175.84L347.06 177.21C345.96 176.44 344.64 176.13 343.34 176.13C341.06 176.13 340.05 177.02 340.05 178.22C340.05 181.63 348.23 179.06 348.23 183.91C348.23 186.09 346.31 187.51 343.02 187.51C340.93 187.51 338.92 186.84 337.88 185.95L337.89 185.93Z" fill="#777777"/>
<path d="M357.87 186.6C357.2 187.2 356.19 187.49 355.2 187.49C352.82 187.49 351.5 186.15 351.5 183.82V176.19H349.24V174.75H351.5V171.99H353.2V174.75H357.04V176.19H353.2V183.73C353.2 185.22 353.97 186.03 355.38 186.03C356.08 186.03 356.77 185.81 357.25 185.38L357.85 186.6H357.87Z" fill="#777777"/>
<path d="M359.12 185.93L359.89 184.59C360.9 185.38 362.6 186.01 364.38 186.01C366.78 186.01 367.76 185.19 367.76 183.95C367.76 180.66 359.58 183.25 359.58 178.26C359.58 176.2 361.36 174.66 364.57 174.66C366.2 174.66 367.98 175.12 369.03 175.84L368.29 177.21C367.19 176.44 365.87 176.13 364.57 176.13C362.29 176.13 361.28 177.02 361.28 178.22C361.28 181.63 369.46 179.06 369.46 183.91C369.46 186.09 367.54 187.51 364.25 187.51C362.16 187.51 360.15 186.84 359.11 185.95L359.12 185.93Z" fill="#777777"/>
<path d="M379.09 186.6C378.42 187.2 377.41 187.49 376.42 187.49C374.04 187.49 372.72 186.15 372.72 183.82V176.19H370.46V174.75H372.72V171.99H374.42V174.75H378.26V176.19H374.42V183.73C374.42 185.22 375.19 186.03 376.6 186.03C377.3 186.03 377.99 185.81 378.47 185.38L379.07 186.6H379.09Z" fill="#777777"/>
<path d="M390.96 179.55V187.37H389.33V185.4C388.56 186.7 387.07 187.49 384.99 187.49C382.13 187.49 380.38 186 380.38 183.82C380.38 181.88 381.63 180.24 385.25 180.24H389.26V179.47C389.26 177.31 388.04 176.13 385.68 176.13C384.05 176.13 382.51 176.71 381.48 177.62L380.71 176.35C381.98 175.27 383.85 174.65 385.85 174.65C389.11 174.65 390.96 176.28 390.96 179.55ZM389.26 183.58V181.52H385.3C382.85 181.52 382.06 182.48 382.06 183.78C382.06 185.24 383.24 186.16 385.25 186.16C387.26 186.16 388.59 185.25 389.26 183.59V183.58ZM382.73 171.22C382.73 170.64 383.19 170.19 383.76 170.19C384.33 170.19 384.79 170.65 384.79 171.22C384.79 171.79 384.31 172.25 383.76 172.25C383.21 172.25 382.73 171.82 382.73 171.22ZM387 171.22C387 170.64 387.48 170.19 388.03 170.19C388.58 170.19 389.06 170.65 389.06 171.22C389.06 171.79 388.6 172.25 388.03 172.25C387.46 172.25 387 171.82 387 171.22Z" fill="#777777"/>
<path d="M406.24 180.05V187.37H404.54V180.22C404.54 177.56 403.15 176.19 400.75 176.19C398.04 176.19 396.33 177.87 396.33 180.75V187.37H394.63V174.75H396.26V177.08C397.17 175.54 398.88 174.66 401.06 174.66C404.13 174.66 406.24 176.44 406.24 180.06V180.05Z" fill="#777777"/>
<path d="M421.68 169.56V187.37H420.05V184.87C419.02 186.57 417.27 187.49 415.18 187.49C411.58 187.49 408.89 184.87 408.89 181.06C408.89 177.25 411.58 174.65 415.18 174.65C417.2 174.65 418.92 175.51 419.98 177.15V169.57H421.68V169.56ZM420 181.06C420 178.11 417.98 176.14 415.32 176.14C412.66 176.14 410.61 178.11 410.61 181.06C410.61 184.01 412.63 185.98 415.32 185.98C418.01 185.98 420 184.01 420 181.06Z" fill="#777777"/>
<path d="M425.07 170.76C425.07 170.11 425.62 169.56 426.32 169.56C427.02 169.56 427.57 170.09 427.57 170.74C427.57 171.44 427.04 171.99 426.32 171.99C425.6 171.99 425.07 171.44 425.07 170.77V170.76ZM425.45 174.74H427.15V187.36H425.45V174.74Z" fill="#777777"/>
<path d="M442.73 174.75V185.84C442.73 190.18 440.59 192.15 436.42 192.15C434.12 192.15 431.86 191.45 430.54 190.21L431.4 188.91C432.6 189.99 434.42 190.64 436.37 190.64C439.56 190.64 441.03 189.18 441.03 186.06V184.45C439.97 186.06 438.17 186.9 436.11 186.9C432.51 186.9 429.77 184.38 429.77 180.76C429.77 177.14 432.51 174.66 436.11 174.66C438.22 174.66 440.05 175.52 441.1 177.18V174.76H442.73V174.75ZM441.07 180.75C441.07 178.01 439.05 176.14 436.27 176.14C433.49 176.14 431.49 178.01 431.49 180.75C431.49 183.49 433.48 185.38 436.27 185.38C439.06 185.38 441.07 183.48 441.07 180.75Z" fill="#777777"/>
<path d="M457.79 181.59H447.23C447.42 184.23 449.44 185.98 452.2 185.98C453.74 185.98 455.1 185.43 456.06 184.32L457.02 185.42C455.89 186.76 454.14 187.48 452.15 187.48C448.21 187.48 445.53 184.79 445.53 181.05C445.53 177.31 448.15 174.64 451.7 174.64C455.25 174.64 457.82 177.26 457.82 181.05C457.82 181.19 457.8 181.39 457.8 181.58L457.79 181.59ZM447.23 180.32H456.18C455.96 177.85 454.16 176.12 451.69 176.12C449.22 176.12 447.44 177.85 447.23 180.32Z" fill="#777777"/>
<path d="M178.7 45.3501L176.85 57.9701L175 70.5801L165.38 63.5401L155.77 56.4901L167.23 50.9201L178.7 45.3501Z" fill="#888888"/>
<path d="M176.02 170.89C163.15 189.94 141.36 202.46 116.65 202.46C77.1001 202.46 45.05 170.4 45.05 130.86C45.05 91.32 77.1 59.25 116.64 59.25C147.92 59.25 174.51 79.31 184.27 107.26" stroke="#999999" stroke-width="16.25" stroke-miterlimit="10"/>
</svg>
