<svg viewBox="-2 -2 184 170" xmlns="http://www.w3.org/2000/svg" id="Ebene_2">
  <defs>
    <style>
      .cls-2, .cls-3, .cls-4, .cls-5, .cls-6, .cls-7, .cls-8, .cls-9, .cls-10, .cls-11, .cls-12, .cls-13, .cls-14 {
        stroke-width: 0px;
      }

      .cls-2, .cls-9 {
        fill: #fab37f;
      }

      .cls-3 {
        fill: #563f82;
      }

      .cls-4 {
        fill: #ee3b76;
      }

      .cls-5 {
        fill: #a25499;
      }

      .cls-6 {
        fill: #4b3368;
      }

      .cls-7 {
        fill: #f59db0;
      }

      .cls-8 {
        fill: #f3715a;
      }

      .cls-9, .cls-13, .cls-14 {
        fill-rule: evenodd;
      }

      .cls-10, .cls-13 {
        fill: #ef5395;
      }

      .cls-11, .cls-14 {
        fill: #9984b9;
      }

      .cls-12 {
        fill: #ed1765;
      }
    </style>
  </defs>
  <g id="Logo-Vertical">
    <!-- Swirl icon (centered) -->
    <g transform="translate(-36.5, 0)">
<path d="M159.51,13.86c24.91,2.32,22.24,27.91,5.22,42.32,8.77-21.16.25-36.13-5.22-42.32Z" class="cls-11"></path>
    <path d="M146.91,42.94c-1.4,9.06-5.51,18.25-12.86,25.55-7.64.74-15.09-.21-20.93-3.54,11.62,6.49,30.32-.98,33.8-22.01Z" class="cls-6"></path>
    <path d="M159.51,13.86c5.46,6.19,13.99,21.16,5.22,42.32-7.52,6.34-19.31,11.2-30.68,12.3,7.36-7.3,11.47-16.49,12.86-25.55,3.28-19.79-10.84-31.39-19.61-34.5-.23-.08-.45-.16-.67-.25,10.72,3.53,25.6,4.74,32.87,5.67h0Z" class="cls-5"></path>
    <path d="M159.51,13.86h0c-7.27-.93-22.15-2.14-32.87-5.67-10.97-4.12-7.86-8.82,3.53-8.12,13.2.81,22.87,5.91,29.34,13.79Z" class="cls-7"></path>
    <path d="M108.06,7.55c17.68,1.94,31.64,22.78,19.99,40.53,4.83-8.66,4.45-27.11-13.52-29.82-.18-2.27-1.71-3.54-4.02-4.47-7.16-2.9-5.59-6.58-2.45-6.23Z" class="cls-2"></path>
    <path d="M88.36,48.21c2.59,15.28,10.64,26.76,25.84,31.97-22.51,6-40.51-11.74-25.84-31.97Z" class="cls-10"></path>
    <path d="M118.41,36.8l-.02.03c-.81-.66-2.01-1.05-3.76-1.03-4.39.05-8.33,2.7-10.36,6.67,0,0,0,0,0,0-4.02,6.02-8.18,3.55-9.39-.65,7.18-5.52,17.56-10.14,23.54-5.02Z" class="cls-12"></path>
    <path d="M118.41,36.8c-5.98-5.12-16.36-.5-23.54,5.02-.99-3.43,0-8,4.65-10.03,6.65-3.05,15.99-6.77,15.01-13.54,17.97,2.71,18.35,21.17,13.52,29.82-.6.91-1.26,1.82-2,2.71-2.39,2.89-10.15,6.39-7.67-3.14.7-2.69,2.89-8.46.01-10.82l.02-.03Z" class="cls-8"></path>
    <path d="M114.53,18.25c.99,6.77-8.35,10.49-15.01,13.54-4.65,2.03-5.64,6.6-4.65,10.03-2.82,2.17-5.15,4.47-6.52,6.38-2.61-16.41,9.3-32.31,26.18-29.96Z" class="cls-7"></path>
    <path d="M113.11,64.94c5.85,3.33,13.3,4.28,20.93,3.54-5.04,5-11.6,9.11-19.85,11.69-15.2-5.2-23.25-16.69-25.84-31.97,1.37-1.91,3.7-4.22,6.52-6.38,1.21,4.2,5.37,6.67,9.39.65-2.71,5.33-2.01,13.04,5.61,20.11.79.74,1.65,1.39,2.55,1.95,0,0,.01,0,.02.01.22.14.44.27.67.4Z" class="cls-4"></path>
    <path d="M164.72,56.18c-5.99,12.83-17.6,22.8-26.86,25.34-6.53,1.79-15.25,1.82-23.67-1.35,8.25-2.58,14.81-6.69,19.85-11.69,11.37-1.1,23.16-5.96,30.68-12.3Z" class="cls-7"></path>
    
    </g>
    <!-- Institut für label -->
    <text x="90" y="92" text-anchor="middle" 
          font-family="'Source Sans 3', 'Helvetica Neue', sans-serif" 
          font-size="8.5" font-weight="600" letter-spacing="0.08em" 
          fill="#A86BBE">/ INSTITUT FÜR</text>
    <!-- Wordmark (centered) -->
    <g transform="translate(0, 12)">
<g>
      <path d="M33.08,100.28H15.79v1.41c.7.09,1.22.2,1.55.32.34.13.56.31.66.54s.15.57.15,1.01v14.6c0,.44-.05.78-.15,1.01-.1.23-.32.41-.66.54-.34.13-.86.23-1.55.32v1.41h17.96l.18-6.51h-1.33c-.22,1.02-.45,1.83-.71,2.44s-.59,1.08-1,1.4c-.41.32-.93.55-1.57.67-.64.13-1.44.21-2.42.25l-3.52.12v-8.37h3.14c.4,0,.73.09.97.24.25.15.45.44.6.87.16.42.31,1.05.46,1.87h1.27v-7.58h-1.27c-.16.82-.32,1.44-.49,1.87-.17.42-.37.71-.6.86-.24.15-.55.23-.94.23h-3.14s0-7.9,0-7.9l3.33.1c1.15.05,2.06.19,2.72.41.66.22,1.18.62,1.54,1.19.36.57.68,1.41.94,2.51h1.33l-.15-5.85Z" class="cls-3"></path>
      <path d="M43.52,100.28h-8.25v1.41c.65.09,1.13.21,1.46.35.32.15.54.36.64.64.1.28.15.68.14,1.19l-.35,14.06c0,.5-.06.89-.16,1.17s-.3.48-.62.62c-.31.13-.8.24-1.44.33v1.41h6.73v-1.41c-.67-.09-1.16-.2-1.48-.34-.32-.14-.53-.34-.63-.62s-.15-.68-.15-1.2l-.04-15.82h-.53l6.81,19.38h2.93l1.84-5.63,4.61-13.73h-.54l.34,16.15c0,.42-.03.75-.13.98-.1.23-.31.41-.63.53-.32.12-.81.22-1.47.29v1.41h9.78v-1.41c-.7-.08-1.22-.18-1.55-.31-.34-.13-.56-.31-.66-.55-.1-.24-.16-.58-.17-1.02l-.34-14.6c0-.44.04-.78.15-1.02.11-.24.33-.42.68-.55.34-.13.86-.23,1.56-.31v-1.41h-8.47s-5.14,16.68-5.14,16.68h.75l-5.66-16.68Z" class="cls-3"></path>
      <path d="M68.3,110.62c0-1.68.19-3.19.57-4.53.38-1.34.97-2.39,1.77-3.17.8-.77,1.84-1.16,3.12-1.16.89,0,1.69.24,2.4.71.71.47,1.31,1.14,1.8,1.99.5.85.87,1.84,1.13,2.97.26,1.13.39,2.35.39,3.66,0,1.68-.19,3.19-.57,4.52-.38,1.33-.97,2.39-1.77,3.17-.8.78-1.84,1.17-3.12,1.17-.89,0-1.69-.24-2.4-.71-.71-.47-1.31-1.14-1.8-1.99-.5-.85-.87-1.84-1.13-2.97-.26-1.13-.39-2.35-.39-3.66ZM62.5,110.89c0,1.68.29,3.2.88,4.54.59,1.35,1.41,2.5,2.45,3.47,1.04.96,2.25,1.7,3.62,2.21,1.37.51,2.85.77,4.43.77,1.72,0,3.28-.28,4.67-.84,1.4-.56,2.59-1.35,3.6-2.35,1-1.01,1.77-2.18,2.31-3.53.54-1.34.81-2.79.81-4.33,0-1.68-.29-3.2-.88-4.54-.59-1.35-1.41-2.5-2.45-3.47-1.04-.96-2.25-1.7-3.62-2.21-1.37-.51-2.84-.77-4.41-.77-1.73,0-3.29.28-4.69.84-1.4.56-2.59,1.35-3.6,2.35-1,1.01-1.77,2.18-2.31,3.52-.54,1.34-.81,2.79-.81,4.34Z" class="cls-3"></path>
      <path d="M105.14,100.28h-19.3l-.16,5.85h1.34c.22-1.13.5-1.99.85-2.57.35-.58.86-.98,1.52-1.2.67-.22,1.59-.37,2.77-.42l.71-.03v16.05c0,.48-.06.85-.17,1.12-.11.27-.35.47-.71.62-.36.14-.92.26-1.67.34v1.41h10.34v-1.41c-.75-.09-1.3-.2-1.66-.34-.36-.14-.6-.35-.72-.62-.12-.27-.18-.64-.18-1.12v-16.05l.72.03c1.18.06,2.1.2,2.77.42.67.23,1.18.63,1.53,1.21.35.58.63,1.43.85,2.56h1.34l-.16-5.85Z" class="cls-3"></path>
      <path d="M114.18,118.16v-14.6c0-.44.05-.78.15-1.01.1-.23.32-.41.66-.54.34-.13.86-.23,1.55-.32v-1.41h-9.97v1.41c.7.09,1.22.2,1.55.32.34.13.56.31.66.54.1.23.15.57.15,1.01v14.6c0,.44-.05.78-.15,1.01-.1.23-.32.41-.66.54-.34.13-.86.23-1.55.32v1.41h9.97v-1.41c-.7-.09-1.22-.2-1.55-.32-.34-.13-.56-.31-.66-.54-.1-.23-.15-.57-.15-1.01Z" class="cls-3"></path>
      <path d="M123.38,110.62c0-1.68.19-3.19.57-4.53.38-1.34.97-2.39,1.77-3.17.8-.77,1.84-1.16,3.12-1.16.89,0,1.7.24,2.4.71.71.47,1.31,1.14,1.81,1.99.5.85.87,1.84,1.13,2.97.26,1.13.39,2.35.39,3.66,0,1.68-.19,3.19-.57,4.52-.38,1.33-.97,2.39-1.77,3.17-.8.78-1.84,1.17-3.12,1.17-.89,0-1.69-.24-2.4-.71-.71-.47-1.31-1.14-1.81-1.99-.5-.85-.87-1.84-1.13-2.97-.26-1.13-.39-2.35-.39-3.66ZM117.59,110.89c0,1.68.29,3.2.88,4.54.59,1.35,1.41,2.5,2.45,3.47s2.25,1.7,3.62,2.21c1.37.51,2.85.77,4.43.77,1.72,0,3.28-.28,4.67-.84,1.39-.56,2.59-1.35,3.59-2.35,1-1.01,1.77-2.18,2.31-3.53.54-1.34.81-2.79.81-4.33,0-1.68-.29-3.2-.88-4.54-.59-1.35-1.4-2.5-2.45-3.47-1.04-.96-2.25-1.7-3.62-2.21-1.37-.51-2.84-.77-4.41-.77-1.73,0-3.29.28-4.69.84-1.4.56-2.59,1.35-3.6,2.35-1,1.01-1.77,2.18-2.31,3.52-.54,1.34-.81,2.79-.81,4.34Z" class="cls-3"></path>
      <path d="M148.08,100.28h-8.03v1.41c.66.1,1.15.22,1.47.37.32.15.53.36.63.64.1.28.15.69.14,1.2l-.09,14.03c0,.5-.05.88-.15,1.16-.1.27-.3.48-.62.61-.31.13-.8.25-1.46.34v1.41h6.84v-1.41c-.7-.09-1.21-.2-1.55-.34-.33-.14-.55-.34-.66-.62-.1-.28-.16-.68-.17-1.21l-.31-14.89h-.74l11.05,18.47h5.6l.13-17.65c0-.5.06-.88.16-1.16.1-.27.3-.48.61-.61.31-.13.79-.25,1.45-.34v-1.41h-6.82v1.41c.7.09,1.21.2,1.55.34.34.14.55.34.66.62.1.28.16.68.17,1.21l.29,14.54h.72l-10.89-18.12Z" class="cls-3"></path>
      <path d="M169.22,121.88c1.64,0,3.12-.26,4.44-.77,1.32-.51,2.37-1.26,3.15-2.25.78-.99,1.16-2.18,1.16-3.58,0-1.58-.46-2.91-1.38-3.97-.92-1.06-2.32-1.9-4.18-2.51l-1.67-.51c-1.34-.43-2.33-.91-2.98-1.45-.65-.54-.98-1.25-.98-2.14s.33-1.58.99-2.12c.66-.54,1.62-.81,2.87-.81.86,0,1.64.18,2.33.53.69.35,1.26.88,1.73,1.58.47.7.8,1.57,1.01,2.6h1.34l-.15-5.07c-.66-.46-1.54-.83-2.65-1.13-1.11-.29-2.32-.44-3.64-.44-1.83,0-3.39.27-4.68.81-1.29.54-2.28,1.29-2.96,2.26-.68.97-1.02,2.09-1.02,3.37,0,1.53.49,2.82,1.47,3.87.98,1.05,2.39,1.86,4.24,2.45l1.66.53c1.33.43,2.3.94,2.91,1.52.61.58.92,1.33.92,2.24s-.36,1.64-1.07,2.21c-.71.58-1.7.87-2.95.87-.7,0-1.36-.11-2-.32-.64-.21-1.22-.53-1.74-.95-.52-.43-.97-.95-1.34-1.58-.37-.63-.65-1.36-.84-2.19h-1.34l.16,5.26c.74.49,1.75.9,3.04,1.22,1.29.33,2.68.49,4.16.49Z" class="cls-3"></path>
      <path d="M13.98,136.94c0,1.02-.2,1.87-.6,2.57-.4.7-.99,1.24-1.78,1.63-.79.39-1.76.6-2.92.65l-1.1.04v-9.9l1.1.04c1.2.05,2.19.28,2.97.68.78.41,1.36.97,1.75,1.7.38.73.57,1.59.57,2.57ZM19.51,136.68c0-2.11-.83-3.7-2.5-4.76-1.66-1.06-3.97-1.6-6.92-1.6H0v1.41c.7.09,1.22.19,1.55.32.34.13.56.31.66.54.1.23.15.57.15,1.01v14.6c0,.44-.05.78-.15,1.01-.1.23-.32.42-.66.54-.34.13-.86.23-1.55.32v1.41h10.15v-1.41c-.74-.09-1.29-.2-1.65-.34-.36-.14-.61-.35-.73-.62-.12-.27-.18-.64-.18-1.12v-4.53h2.5c1.39,0,2.67-.15,3.82-.45,1.15-.3,2.15-.74,2.98-1.31.83-.58,1.48-1.28,1.93-2.12.45-.84.68-1.81.68-2.9Z" class="cls-3"></path>
      <path d="M29.93,128.37c.55,0,1.02-.18,1.41-.54.39-.36.58-.81.58-1.37s-.19-1.01-.58-1.37c-.39-.36-.86-.53-1.41-.53s-1.01.18-1.4.53c-.39.36-.59.81-.59,1.37s.19,1.01.58,1.37c.39.36.86.54,1.41.54ZM24.51,128.37c.55,0,1.02-.18,1.41-.54.39-.36.58-.81.58-1.37s-.19-1.01-.58-1.37c-.39-.36-.86-.53-1.41-.53s-1.02.18-1.41.53c-.39.36-.58.81-.58,1.37s.19,1.01.58,1.37c.39.36.86.54,1.41.54ZM21.12,144.58h10.36l-.69-1.76h-9.03l-.63,1.76ZM35.47,147.1l-6.11-16.79h-4.14l-6.1,16.68c-.3.81-.57,1.42-.81,1.83-.24.41-.53.7-.87.87-.34.17-.82.3-1.43.37v1.41h7.1v-1.41c-.75-.11-1.29-.25-1.63-.43-.34-.18-.51-.47-.52-.87,0-.4.12-.98.38-1.74l4.61-13.75h-.6l4.66,13.75c.27.76.39,1.34.38,1.74,0,.4-.19.69-.53.87-.34.18-.89.32-1.64.43v1.41h10.3v-1.41c-.59-.08-1.05-.2-1.39-.37-.34-.17-.63-.45-.87-.84-.24-.4-.5-.98-.79-1.77Z" class="cls-3"></path>
      <path d="M55.01,140.88c0,1.81-.3,3.37-.91,4.68-.6,1.31-1.46,2.34-2.56,3.07-1.1.73-2.39,1.12-3.87,1.17l-1.56.04v-17.91l1.56.04c1.49.05,2.79.45,3.89,1.2,1.1.75,1.95,1.78,2.55,3.09.6,1.31.9,2.85.9,4.61ZM60.77,140.58c0-2.19-.53-4.05-1.58-5.58-1.05-1.53-2.51-2.69-4.37-3.49-1.86-.8-4.01-1.19-6.45-1.19h-9.86v1.41c.7.09,1.22.19,1.55.32.34.13.56.31.66.54.1.23.15.57.15,1.01v14.6c0,.44-.05.78-.15,1.01-.1.23-.32.42-.66.54s-.86.23-1.55.32v1.41h10.09c1.66,0,3.22-.25,4.68-.76,1.46-.51,2.76-1.24,3.88-2.2,1.12-.96,2-2.11,2.64-3.45.64-1.34.96-2.84.96-4.5Z" class="cls-3"></path>
      <path d="M63.71,144.58h10.36l-.69-1.76h-9.03l-.63,1.76ZM78.06,147.1l-6.11-16.79h-4.14l-6.1,16.68c-.3.81-.57,1.42-.81,1.83-.24.41-.53.7-.87.87-.34.17-.82.3-1.43.37v1.41h7.1v-1.41c-.75-.11-1.29-.25-1.63-.43-.34-.18-.51-.47-.52-.87,0-.4.12-.98.38-1.74l4.61-13.75h-.6l4.66,13.75c.27.76.39,1.34.38,1.74,0,.4-.19.69-.53.87-.34.18-.89.32-1.64.43v1.41h10.3v-1.41c-.59-.08-1.05-.2-1.39-.37-.34-.17-.63-.45-.87-.84-.24-.4-.5-.98-.79-1.77Z" class="cls-3"></path>
      <path d="M78.96,140.97c0,1.68.3,3.2.9,4.55.6,1.35,1.43,2.5,2.49,3.45,1.06.95,2.3,1.68,3.71,2.19,1.41.51,2.93.76,4.56.76s3.13-.17,4.58-.52c1.45-.35,2.61-.81,3.5-1.38v-6.01c0-.42.05-.74.14-.97.09-.23.3-.39.62-.51s.81-.2,1.48-.27v-1.41h-9.33v1.41c.75.07,1.29.16,1.64.27.35.11.58.28.69.51.11.22.16.54.16.95v5.26c-.32.23-.74.42-1.25.54-.51.13-1.07.19-1.7.19-.97,0-1.85-.23-2.63-.7-.78-.46-1.45-1.12-2.01-1.97-.56-.84-.99-1.84-1.3-2.97-.3-1.13-.46-2.37-.46-3.71,0-1.75.25-3.29.75-4.62.5-1.33,1.23-2.36,2.19-3.11.96-.74,2.12-1.11,3.5-1.11.69,0,1.32.1,1.9.31.58.2,1.1.51,1.56.92.46.41.86.93,1.19,1.56.33.63.6,1.37.81,2.21h1.33l-.13-5.41c-.68-.47-1.64-.84-2.89-1.11s-2.66-.41-4.22-.41c-1.69,0-3.25.25-4.67.75-1.42.5-2.67,1.23-3.74,2.18-1.07.96-1.89,2.12-2.48,3.5-.59,1.37-.88,2.93-.88,4.67Z" class="cls-3"></path>
      <path d="M107.75,140.66c0-1.68.19-3.19.57-4.53.38-1.34.97-2.39,1.77-3.17.8-.77,1.84-1.16,3.12-1.16.89,0,1.7.24,2.4.71.71.47,1.31,1.14,1.81,1.99.5.85.87,1.84,1.13,2.97.26,1.13.39,2.35.39,3.66,0,1.68-.19,3.19-.57,4.52s-.97,2.39-1.77,3.17c-.8.78-1.84,1.17-3.12,1.17-.89,0-1.69-.24-2.4-.71-.71-.47-1.31-1.14-1.81-1.99s-.87-1.84-1.13-2.97c-.26-1.13-.39-2.35-.39-3.66ZM101.96,140.93c0,1.68.29,3.2.88,4.54.59,1.35,1.4,2.5,2.44,3.47,1.04.96,2.25,1.7,3.62,2.21,1.37.51,2.85.77,4.43.77,1.72,0,3.28-.28,4.67-.84,1.39-.56,2.59-1.35,3.59-2.35,1-1.01,1.77-2.18,2.31-3.53.54-1.34.81-2.79.81-4.33,0-1.68-.29-3.2-.88-4.54-.59-1.35-1.4-2.5-2.45-3.47-1.04-.96-2.25-1.7-3.62-2.21-1.37-.51-2.84-.77-4.41-.77-1.73,0-3.29.28-4.69.84-1.39.56-2.59,1.35-3.59,2.35s-1.77,2.18-2.31,3.52c-.54,1.34-.81,2.79-.81,4.34Z" class="cls-3"></path>
      <path d="M125.76,140.97c0,1.68.3,3.2.9,4.55.6,1.35,1.43,2.5,2.49,3.45,1.06.95,2.3,1.68,3.7,2.19,1.41.51,2.93.76,4.56.76s3.13-.17,4.57-.52c1.45-.35,2.62-.81,3.5-1.38v-6.01c0-.42.05-.74.14-.97.09-.23.3-.39.62-.51s.81-.2,1.48-.27v-1.41h-9.33v1.41c.75.07,1.29.16,1.64.27s.58.28.68.51c.11.22.16.54.16.95v5.26c-.32.23-.74.42-1.25.54-.51.13-1.07.19-1.7.19-.97,0-1.85-.23-2.63-.7-.78-.46-1.45-1.12-2.01-1.97-.56-.84-.99-1.84-1.3-2.97-.3-1.13-.46-2.37-.46-3.71,0-1.75.25-3.29.75-4.62.5-1.33,1.23-2.36,2.19-3.11.96-.74,2.12-1.11,3.5-1.11.69,0,1.32.1,1.9.31.58.2,1.1.51,1.56.92.46.41.86.93,1.19,1.56.33.63.6,1.37.81,2.21h1.33l-.13-5.41c-.68-.47-1.64-.84-2.89-1.11-1.25-.27-2.66-.41-4.22-.41-1.69,0-3.25.25-4.67.75-1.42.5-2.67,1.23-3.73,2.18-1.07.96-1.89,2.12-2.48,3.5-.59,1.37-.88,2.93-.88,4.67Z" class="cls-3"></path>
      <path d="M155.02,148.2v-14.6c0-.44.05-.78.16-1.01.1-.23.32-.41.66-.54.34-.13.86-.23,1.55-.32v-1.41h-9.97v1.41c.7.09,1.22.19,1.55.32.34.13.56.31.66.54.1.23.16.57.16,1.01v14.6c0,.44-.05.78-.16,1.01-.1.23-.32.42-.66.54s-.86.23-1.55.32v1.41h9.97v-1.41c-.7-.09-1.22-.2-1.55-.32-.34-.13-.56-.31-.66-.54-.1-.23-.16-.57-.16-1.01Z" class="cls-3"></path>
      <path d="M163.37,141.52h5.13v-1.69h-5.13v1.69ZM173.26,151.48h6.19v-1.33c-.34-.12-.67-.3-.98-.55-.31-.25-.67-.66-1.08-1.22-.41-.57-.93-1.38-1.55-2.45l-5.13-8.75-1.15,2.55c.6-.71,1.24-1.45,1.93-2.21.69-.76,1.45-1.58,2.3-2.46.73-.75,1.36-1.35,1.89-1.8.53-.45,1.04-.79,1.54-1.02.5-.23,1.06-.4,1.69-.51v-1.41h-7.85v1.41c.72.08,1.23.2,1.53.38.3.18.39.45.28.81-.11.37-.43.87-.95,1.52l-5.01,6.05,6.36,11ZM165.54,148.29v-14.76c0-.41.05-.73.15-.96.1-.23.31-.41.63-.53.31-.12.8-.22,1.44-.3v-1.42h-9.81v1.41c.7.09,1.22.19,1.55.32.34.13.56.31.66.54.1.23.15.57.15,1.01v14.6c0,.44-.05.78-.15,1.01-.1.23-.32.42-.66.54-.34.13-.86.23-1.55.32v1.41h9.81v-1.41c-.65-.09-1.13-.19-1.44-.31s-.52-.29-.63-.52c-.1-.23-.15-.55-.15-.96Z" class="cls-3"></path>
    </g>
    </g>
  </g>
</svg>