<svg width="804" height="222" viewBox="0 0 804 222" fill="none" xmlns="http://www.w3.org/2000/svg">
<path fill-rule="evenodd" clip-rule="evenodd" d="M279.478 59.2683H283.824C314.134 59.2683 329.4 74.6709 329.4 104.472C329.4 131.594 316.697 149.675 283.824 149.675H279.478V59.2683ZM252.845 173.114H290.733C329.735 173.114 356.925 143.313 356.925 104.806C356.925 65.7418 330.403 36.0527 290.844 36.0527H252.845V173.114Z" fill="#777777"/>
<path d="M400.496 112.731H442.952V89.5154H400.496V59.2683H444.624V36.0527H373.863V173.114H444.624V149.787H400.496V112.731Z" fill="#777777"/>
<path fill-rule="evenodd" clip-rule="evenodd" d="M725.216 122.441L741.82 72.7733H742.154L757.643 122.441H725.216ZM678.19 173.114L729.45 41.0752C731.568 35.4945 736.805 32.481 741.931 32.481C747.168 32.481 752.406 35.4945 754.412 41.0752L804 173.114H775.473L764.998 144.206H717.527L706.272 173.114H678.19Z" fill="#777777"/>
<path d="M640.637 116.972L678.191 173.113H645.875L612.333 117.865V173.113H585.7V36.0522H631.611C654.232 36.0522 672.507 54.3568 672.507 77.0143C672.507 96.5466 658.912 112.842 640.637 116.972ZM626.596 57.8168H612.333V99.1137H626.596C637.183 99.1137 645.763 89.8498 645.763 78.4652C645.652 67.0807 637.071 57.8168 626.596 57.8168Z" fill="#777777"/>
<path d="M494.769 111.503L538.563 173.114H572.885L518.059 99.3374L569.987 36.0527H537.114L494.769 93.8683H494.435V36.0527H467.802V173.114H494.435V111.503H494.769Z" fill="#777777"/>
<path d="M42.7909 1.22923L158.46 68.3087C167.375 73.4429 176.289 84.6042 176.289 99.2256C176.289 114.07 167.375 125.008 158.46 130.142L0 222V180.703L140.63 99.114L65.0778 55.25V117.084L29.5302 137.732V8.81892C29.5302 5.69375 31.2017 2.6802 33.9875 1.11762C36.4391 -0.221737 39.7821 -0.556578 42.7909 1.22923Z" fill="#777777"/>
</svg>
