<svg width="777" height="287" viewBox="0 0 777 287" fill="none" xmlns="http://www.w3.org/2000/svg">
<path d="M0 0V286.175H387.918C431.714 194.04 431.838 92.2563 387.918 0H0Z" fill="#CCCCCC"/>
<path d="M388.974 0C432.845 92.2563 432.722 194.04 388.974 286.175H776.563V0H388.974Z" fill="#666666"/>
<path d="M461.863 78.8063C458.325 78.8063 455.504 81.6772 455.504 85.2003L455.418 201.804C455.418 205.327 458.292 208.198 461.82 208.198H474.754C478.281 208.198 481.156 205.327 481.156 201.804L481.242 85.2003C481.242 81.6772 478.368 78.8063 474.84 78.8063H461.863ZM514.464 78.8063C510.937 78.8063 508.062 81.6772 508.062 85.2003V201.804C508.062 205.327 510.927 208.198 514.464 208.198H527.225C530.763 208.198 533.628 205.327 533.628 201.804V153.763H585.104L585.148 201.804C585.148 205.327 588.012 208.198 591.55 208.198H604.267C607.795 208.198 610.67 205.327 610.67 201.804V85.2003C610.67 81.6772 607.795 78.8063 604.267 78.8063H591.463C587.936 78.8063 585.104 81.6772 585.104 85.2003V132.118H533.628L533.671 85.2003C533.671 81.6772 530.806 78.8063 527.269 78.8063H514.464ZM643.892 78.8063C640.364 78.8063 637.533 81.6772 637.533 85.2003L637.49 201.804C637.49 205.327 640.354 208.198 643.892 208.198H655.744C659.272 208.198 662.146 205.327 662.146 201.804V171.303L683.689 148.103L716.911 201.804C719.073 205.327 722.101 208.198 725.649 208.198H743.428C746.966 208.198 748.066 205.327 745.893 201.804L700.04 129.829L739.708 85.2003C742.873 81.6772 742.576 78.8063 739.059 78.8063H721.669C718.131 78.8063 716.361 78.4482 710.682 84.1202L662.233 136.525L662.103 85.2003C662.103 81.6772 659.239 78.8063 655.701 78.8063H643.892Z" fill="white"/>
</svg>
