<svg width="95" height="83" viewBox="0 0 95 83" fill="none" xmlns="http://www.w3.org/2000/svg">
<path d="M76.4671 13.8598C101.377 16.1798 98.7071 41.7698 81.6871 56.1798C90.4571 35.0198 81.9371 20.0498 76.4671 13.8598Z" fill="#9984B9"/>
<path d="M63.8671 42.9398C62.4671 51.9998 58.3571 61.1898 51.0071 68.4898C43.3671 69.2298 35.9171 68.2798 30.0771 64.9498C41.6971 71.4398 60.3971 63.9698 63.8771 42.9398H63.8671Z" fill="#4B3368"/>
<path d="M76.4671 13.8598C81.9271 20.0498 90.4571 35.0198 81.6871 56.1798C74.1671 62.5198 62.3771 67.3798 51.0071 68.4798C58.3671 61.1798 62.4771 51.9898 63.8671 42.9298C67.1471 23.1398 53.0271 11.5398 44.2571 8.42978C44.0271 8.34978 43.8071 8.26978 43.5871 8.17978C54.3071 11.7098 69.1871 12.9198 76.4571 13.8498L76.4671 13.8598Z" fill="#A25499"/>
<path d="M76.4671 13.8598C69.1971 12.9298 54.3171 11.7198 43.5971 8.18978C32.6271 4.06978 35.7371 -0.630222 47.1271 0.0697783C60.3271 0.879778 69.9971 5.97978 76.4671 13.8598Z" fill="#F59DB0"/>
<path d="M25.0171 7.54977C42.6971 9.48977 56.6572 30.3298 45.0072 48.0798C49.8372 39.4198 49.4571 20.9698 31.4871 18.2598C31.3071 15.9898 29.7772 14.7198 27.4672 13.7898C20.3072 10.8898 21.8771 7.20977 25.0171 7.55977V7.54977Z" fill="#FAB37F"/>
<path d="M5.31714 48.2098C7.90714 63.4898 15.9571 74.9698 31.1571 80.1798C8.64714 86.1798 -9.35286 68.4398 5.31714 48.2098Z" fill="#EF5395"/>
<path d="M35.3671 36.7998L35.3471 36.8298C34.5371 36.1698 33.3371 35.7798 31.5871 35.7998C27.1971 35.8498 23.2571 38.4998 21.2271 42.4698C17.2071 48.4898 13.0471 46.0198 11.8371 41.8198C19.0171 36.2998 29.3971 31.6798 35.3771 36.7998H35.3671Z" fill="#ED1765"/>
<path d="M35.3671 36.7998C29.3871 31.6798 19.0071 36.2998 11.8271 41.8198C10.8371 38.3898 11.8271 33.8198 16.4771 31.7898C23.1271 28.7398 32.4671 25.0198 31.4871 18.2498C49.4571 20.9598 49.8371 39.4198 45.0071 48.0698C44.4071 48.9798 43.7471 49.8898 43.0071 50.7798C40.6171 53.6698 32.8571 57.1698 35.3371 47.6398C36.0371 44.9498 38.2271 39.1798 35.3471 36.8198L35.3671 36.7898V36.7998Z" fill="#F3715A"/>
<path d="M31.4871 18.2498C32.4771 25.0198 23.1371 28.7398 16.4771 31.7898C11.8271 33.8198 10.8371 38.3898 11.8271 41.8198C9.00713 43.9898 6.67712 46.2898 5.30712 48.1998C2.69712 31.7898 14.6071 15.8898 31.4871 18.2398V18.2498Z" fill="#F59DB0"/>
<path d="M30.0671 64.9398C35.9171 68.2698 43.3671 69.2198 50.9971 68.4798C45.9571 73.4798 39.3971 77.5898 31.1471 80.1698C15.9471 74.9698 7.89713 63.4798 5.30713 48.1998C6.67713 46.2898 9.00713 43.9798 11.8271 41.8198C13.0371 46.0198 17.1971 48.4898 21.2171 42.4698C18.5071 47.7998 19.2071 55.5098 26.8271 62.5798C27.6171 63.3198 28.4771 63.9698 29.3771 64.5298C29.3771 64.5298 29.3871 64.5298 29.3971 64.5398C29.6171 64.6798 29.8371 64.8098 30.0671 64.9398Z" fill="#EE3B76"/>
<path d="M81.6772 56.1798C75.6872 69.0098 64.0772 78.9798 54.8172 81.5198C48.2872 83.3098 39.5672 83.3398 31.1472 80.1698C39.3972 77.5898 45.9571 73.4798 50.9971 68.4798C62.3671 67.3798 74.1572 62.5198 81.6772 56.1798Z" fill="#F59DB0"/>
</svg>
